<svg width="21" height="20" viewBox="0 0 21 20" fill="none" xmlns="http://www.w3.org/2000/svg">
<path d="M7.72224 18.3333C9.25557 18.3333 10.5 17.0889 10.5 15.5555V12.7778H7.72224C6.1889 12.7778 4.94446 14.0222 4.94446 15.5555C4.94446 17.0889 6.1889 18.3333 7.72224 18.3333Z" fill="#0ACF83"/>
<path d="M4.94446 10C4.94446 8.46667 6.1889 7.22223 7.72224 7.22223H10.5V12.7778H7.72224C6.1889 12.7778 4.94446 11.5333 4.94446 10Z" fill="#A259FF"/>
<path d="M4.94446 4.44443C4.94446 2.9111 6.1889 1.66666 7.72224 1.66666H10.5V7.22221H7.72224C6.1889 7.22221 4.94446 5.97777 4.94446 4.44443Z" fill="#F24E1E"/>
<path d="M10.5 1.66666H13.2778C14.8111 1.66666 16.0556 2.9111 16.0556 4.44443C16.0556 5.97777 14.8111 7.22221 13.2778 7.22221H10.5V1.66666Z" fill="#FF7262"/>
<path d="M16.0556 10C16.0556 11.5333 14.8111 12.7778 13.2778 12.7778C11.7444 12.7778 10.5 11.5333 10.5 10C10.5 8.46667 11.7444 7.22223 13.2778 7.22223C14.8111 7.22223 16.0556 8.46667 16.0556 10Z" fill="#1ABCFE"/>
</svg>
