<svg width="21" height="20" viewBox="0 0 21 20" fill="none" xmlns="http://www.w3.org/2000/svg">
<g clip-path="url(#clip0_64_525)">
<path d="M10.5 0C4.98608 0 0.5 4.48608 0.5 10C0.5 14.7819 3.79142 18.9836 8.32633 19.9902C8.44922 20.0175 8.57861 19.9874 8.67749 19.9084C8.77596 19.8291 8.83333 19.7099 8.83333 19.5833V17.0833C8.83333 16.853 8.64697 16.6667 8.41667 16.6667H7.58333C6.59578 16.6667 5.71403 15.4484 5.00521 14.4698C4.93522 14.373 4.86605 14.2778 4.79769 14.1846C5.08862 14.3209 5.37264 14.4633 5.60864 14.5817C6.29224 14.9243 6.93799 15.2482 7.46615 15.3996C7.48934 15.4073 7.51782 15.4211 7.54956 15.4354C7.75301 15.5269 8.13102 15.697 8.46997 15.4765C8.83333 15.2413 8.83333 14.7461 8.83333 14.5833V14.2928C8.83333 14.1064 8.70963 13.9429 8.53019 13.892C6.2194 13.2373 4.66667 11.5059 4.66667 9.58333C4.66667 8.58358 5.07723 7.62899 5.85441 6.82332C5.97404 6.69922 6.00496 6.51489 5.93254 6.35864C5.62248 5.6901 5.68799 4.78068 6.05623 4.23462C6.54248 4.42423 7.17318 4.82178 7.58293 5.30843C7.69564 5.44189 7.88078 5.49194 8.04476 5.43131C9.60726 4.8584 11.3927 4.8584 12.9552 5.43131C13.1208 5.49276 13.3052 5.4423 13.4171 5.30843C13.8268 4.82178 14.4575 4.42423 14.9438 4.23462C15.312 4.78068 15.3775 5.6901 15.0675 6.35864C14.995 6.51489 15.026 6.69922 15.1456 6.82332C15.9228 7.62899 16.3333 8.58358 16.3333 9.58333C16.3333 11.6016 14.6085 13.409 12.139 13.9783C12.0129 14.0076 11.9075 14.0934 11.8538 14.211C11.8 14.3286 11.8037 14.4645 11.8643 14.5789C12.0706 14.9695 12.1667 15.5005 12.1667 16.25V19.5833C12.1667 19.7099 12.224 19.8291 12.3225 19.9084C12.3974 19.9683 12.4893 20 12.5833 20C12.6134 20 12.6436 19.9967 12.6737 19.9902C17.2086 18.9836 20.5 14.7819 20.5 10C20.5 4.48608 16.0139 0 10.5 0Z" fill="#303C42"/>
<path opacity="0.2" d="M8.53015 14.1003C8.70959 14.1512 8.83329 14.3147 8.83329 14.5011V14.2928C8.83329 14.1064 8.70959 13.9428 8.53015 13.892C6.26234 13.2494 4.73361 11.5686 4.67721 9.68893C4.67624 9.72352 4.66663 9.75694 4.66663 9.79163C4.66663 11.7142 6.21936 13.4456 8.53015 14.1003Z" fill="white"/>
<path opacity="0.2" d="M12.139 14.1866C14.6085 13.6173 16.3334 11.8099 16.3334 9.79163C16.3334 9.75597 16.3236 9.72159 16.3225 9.68604C16.2643 11.662 14.566 13.4188 12.139 13.9782C12.0129 14.0075 11.9075 14.0934 11.8538 14.211C11.8136 14.2989 11.8162 14.3949 11.8401 14.4868C11.8461 14.4644 11.844 14.4407 11.8538 14.4193C11.9075 14.3017 12.0129 14.2159 12.139 14.1866Z" fill="white"/>
<path opacity="0.2" d="M10.5 0C4.98608 0 0.5 4.48608 0.5 10C0.5 10.0379 0.504425 10.075 0.504832 10.1129C0.556814 4.64325 5.01828 0.208333 10.5 0.208333C15.9817 0.208333 20.4432 4.64325 20.4952 10.1129C20.4956 10.075 20.5 10.0379 20.5 10C20.5 4.48608 16.0139 0 10.5 0Z" fill="white"/>
<path opacity="0.1" d="M8.32633 19.9902C8.44922 20.0175 8.57861 19.9874 8.67749 19.9084C8.77596 19.8291 8.83333 19.7099 8.83333 19.5833V19.375C8.83333 19.5015 8.77596 19.6207 8.67749 19.7001C8.57861 19.779 8.44922 19.8091 8.32633 19.7819C3.82738 18.7832 0.556508 14.6392 0.504832 9.90451C0.504527 9.93666 0.5 9.96778 0.5 9.99998C0.5 14.7819 3.79142 18.9835 8.32633 19.9902Z" fill="#010101"/>
<path opacity="0.1" d="M12.6736 19.7819C12.6435 19.7884 12.6134 19.7916 12.5833 19.7916C12.4893 19.7916 12.3973 19.7599 12.3225 19.7001C12.224 19.6207 12.1666 19.5015 12.1666 19.375V19.5833C12.1666 19.7099 12.224 19.8291 12.3225 19.9084C12.3973 19.9682 12.4893 20 12.5833 20C12.6134 20 12.6435 19.9967 12.6736 19.9902C17.2085 18.9835 20.5 14.7819 20.5 9.99998C20.5 9.96778 20.4954 9.93666 20.4951 9.90451C20.4435 14.6392 17.1726 18.7832 12.6736 19.7819Z" fill="#010101"/>
<path opacity="0.1" d="M14.9437 4.02869C14.4575 4.2183 13.8268 4.61584 13.4171 5.1025C13.3052 5.23637 13.1208 5.28682 12.9552 5.22538C11.3927 4.65247 9.60724 4.65247 8.04474 5.22538C7.88076 5.28601 7.69562 5.23596 7.58291 5.1025C7.17316 4.61584 6.54246 4.2183 6.05622 4.02869C5.846 4.34042 5.74763 4.77047 5.74829 5.20667C5.77779 4.84493 5.87988 4.4985 6.05622 4.23702C6.54246 4.42664 7.17316 4.82418 7.58291 5.31083C7.69562 5.4443 7.88076 5.49434 8.04474 5.43372C9.60724 4.8608 11.3927 4.8608 12.9552 5.43372C13.1208 5.49516 13.3052 5.4447 13.4171 5.31083C13.8268 4.82418 14.4575 4.42664 14.9437 4.23702C15.1201 4.4985 15.2222 4.84493 15.2517 5.20667C15.2523 4.77047 15.154 4.34042 14.9437 4.02869Z" fill="#010101"/>
<path d="M10.5 0C4.98608 0 0.5 4.48608 0.5 10C0.5 14.7819 3.79142 18.9836 8.32633 19.9902C8.44922 20.0175 8.57861 19.9874 8.67749 19.9084C8.77596 19.8291 8.83333 19.7099 8.83333 19.5833V17.0833C8.83333 16.853 8.64697 16.6667 8.41667 16.6667H7.58333C6.59578 16.6667 5.71403 15.4484 5.00521 14.4698C4.93522 14.373 4.86605 14.2778 4.79769 14.1846C5.08862 14.3209 5.37264 14.4633 5.60864 14.5817C6.29224 14.9243 6.93799 15.2482 7.46615 15.3996C7.48934 15.4073 7.51782 15.4211 7.54956 15.4354C7.75301 15.5269 8.13102 15.697 8.46997 15.4765C8.83333 15.2413 8.83333 14.7461 8.83333 14.5833V14.2928C8.83333 14.1064 8.70963 13.9429 8.53019 13.892C6.2194 13.2373 4.66667 11.5059 4.66667 9.58333C4.66667 8.58358 5.07723 7.62899 5.85441 6.82332C5.97404 6.69922 6.00496 6.51489 5.93254 6.35864C5.62248 5.6901 5.68799 4.78068 6.05623 4.23462C6.54248 4.42423 7.17318 4.82178 7.58293 5.30843C7.69564 5.44189 7.88078 5.49194 8.04476 5.43131C9.60726 4.8584 11.3927 4.8584 12.9552 5.43131C13.1208 5.49276 13.3052 5.4423 13.4171 5.30843C13.8268 4.82178 14.4575 4.42423 14.9438 4.23462C15.312 4.78068 15.3775 5.6901 15.0675 6.35864C14.995 6.51489 15.026 6.69922 15.1456 6.82332C15.9228 7.62899 16.3333 8.58358 16.3333 9.58333C16.3333 11.6016 14.6085 13.409 12.139 13.9783C12.0129 14.0076 11.9075 14.0934 11.8538 14.211C11.8 14.3286 11.8037 14.4645 11.8643 14.5789C12.0706 14.9695 12.1667 15.5005 12.1667 16.25V19.5833C12.1667 19.7099 12.224 19.8291 12.3225 19.9084C12.3974 19.9683 12.4893 20 12.5833 20C12.6134 20 12.6436 19.9967 12.6737 19.9902C17.2086 18.9836 20.5 14.7819 20.5 10C20.5 4.48608 16.0139 0 10.5 0Z" fill="black"/>
</g>
<defs>
<clipPath id="clip0_64_525">
<rect width="20" height="20" fill="white" transform="translate(0.5)"/>
</clipPath>
</defs>
</svg>
