<svg width="120" height="24" viewBox="0 0 120 24" fill="none" xmlns="http://www.w3.org/2000/svg">
<g clip-path="url(#clip0_64_369)">
<path d="M41.875 14.7431C41.8855 15.8743 41.684 16.9974 41.281 18.0543C40.9077 19.0361 40.3362 19.9302 39.602 20.6808C38.8668 21.4221 37.9896 22.007 37.023 22.4005C34.919 23.2283 32.58 23.2283 30.476 22.4005C29.5152 22.0044 28.6434 21.4197 27.912 20.6808C27.1778 19.9302 26.6063 19.0361 26.233 18.0543C25.439 15.9181 25.439 13.5672 26.233 11.431C26.6062 10.4492 27.1778 9.55503 27.912 8.80444C28.6434 8.06561 29.5152 7.48089 30.476 7.08479C32.58 6.25695 34.919 6.25695 37.023 7.08479C37.9896 7.47827 38.8668 8.0632 39.602 8.80444C40.3362 9.55503 40.9078 10.4492 41.281 11.431C41.6841 12.4881 41.8856 13.6116 41.875 14.7431ZM33.755 19.4877C34.3555 19.5141 34.9545 19.4097 35.5106 19.1815C36.0668 18.9534 36.5668 18.607 36.976 18.1664C37.7565 17.1965 38.1821 15.9886 38.1821 14.7431C38.1821 13.4977 37.7565 12.2898 36.976 11.3199C36.5668 10.8792 36.0668 10.5329 35.5106 10.3047C34.9545 10.0766 34.3555 9.97214 33.755 9.99858C33.1525 9.97336 32.5516 10.0783 31.9932 10.3063C31.4348 10.5343 30.932 10.88 30.519 11.3199C29.7294 12.2856 29.298 13.4952 29.298 14.7431C29.298 15.9911 29.7294 17.2006 30.519 18.1664C30.9321 18.6064 31.4351 18.9522 31.9936 19.1802C32.5522 19.4082 33.1533 19.513 33.756 19.4877H33.755Z" fill="#32383C"/>
<path d="M60.673 14.7431C60.6835 15.8743 60.482 16.9974 60.079 18.0543C59.7058 19.0361 59.1342 19.9302 58.4 20.6808C57.6648 21.4221 56.7876 22.007 55.821 22.4005C53.717 23.2283 51.378 23.2283 49.274 22.4005C48.3132 22.0044 47.4414 21.4197 46.71 20.6808C45.9759 19.9302 45.4043 19.0361 45.031 18.0543C44.237 15.9181 44.237 13.5672 45.031 11.431C45.4042 10.4492 45.9758 9.55503 46.71 8.80444C47.4414 8.06561 48.3132 7.48089 49.274 7.08479C51.378 6.25695 53.717 6.25695 55.821 7.08479C56.7876 7.47827 57.6648 8.0632 58.4 8.80444C59.1342 9.55503 59.7058 10.4492 60.079 11.431C60.4821 12.4881 60.6836 13.6116 60.673 14.7431ZM52.553 19.4877C53.1535 19.5141 53.7525 19.4097 54.3087 19.1815C54.8648 18.9534 55.3648 18.607 55.774 18.1664C56.5545 17.1965 56.9801 15.9886 56.9801 14.7431C56.9801 13.4977 56.5545 12.2898 55.774 11.3199C55.3648 10.8792 54.8648 10.5329 54.3087 10.3047C53.7525 10.0766 53.1535 9.97214 52.553 9.99858C51.9505 9.97336 51.3496 10.0783 50.7912 10.3063C50.2328 10.5343 49.73 10.88 49.317 11.3199C48.5274 12.2856 48.096 13.4952 48.096 14.7431C48.096 15.9911 48.5274 17.2006 49.317 18.1664C49.7301 18.6064 50.2331 18.9522 50.7917 19.1802C51.3502 19.4082 51.9513 19.513 52.554 19.4877H52.553Z" fill="#32383C"/>
<path d="M66.864 15.8292L70.672 12.0556C71.3557 11.3808 72.2773 11.0024 73.2375 11.0024C74.1977 11.0024 75.1193 11.3808 75.803 12.0556L65.808 21.9651C65.124 22.6461 64.1978 23.0274 63.233 23.0251V4.01185C63.2354 3.53692 63.3312 3.06712 63.5149 2.62925C63.6987 2.19138 63.9668 1.79403 64.3039 1.45988C64.6411 1.12574 65.0408 0.861335 65.48 0.681779C65.9193 0.502223 66.3895 0.411022 66.864 0.413394V15.8292Z" fill="#32383C"/>
<path d="M72.916 23.0211C73.919 23.0211 74.732 22.2153 74.732 21.2213C74.732 20.2274 73.919 19.4216 72.916 19.4216C71.9131 19.4216 71.1 20.2274 71.1 21.2213C71.1 22.2153 71.9131 23.0211 72.916 23.0211Z" fill="#32383C"/>
<path d="M78.893 23.0221V4.01284C78.8953 3.53792 78.9912 3.06811 79.1749 2.63024C79.3587 2.19238 79.6268 1.79503 79.9639 1.46088C80.3011 1.12673 80.7007 0.862331 81.14 0.682775C81.5793 0.503218 82.0495 0.412018 82.524 0.41439V19.4246C82.5216 19.8995 82.4259 20.3694 82.2421 20.8072C82.0584 21.2451 81.7903 21.6424 81.4531 21.9766C81.1159 22.3107 80.7163 22.5751 80.277 22.7547C79.8378 22.9342 79.3675 23.0254 78.893 23.0231V23.0221Z" fill="#32383C"/>
<path d="M101.263 23.0221H92.533C91.6141 23.0176 90.7038 22.8449 89.847 22.5126C88.9478 22.1716 88.1301 21.6455 87.447 20.9681C86.7131 20.2293 86.1323 19.3527 85.738 18.3886C85.2764 17.23 85.053 15.9901 85.081 14.7431C85.0724 13.6116 85.2759 12.4884 85.681 11.432C86.0542 10.4502 86.6258 9.55603 87.36 8.80543C88.0914 8.0666 88.9632 7.48188 89.924 7.08578C90.9651 6.66123 92.0809 6.4502 93.205 6.46519C94.3225 6.452 95.432 6.65596 96.472 7.06577C97.4331 7.44469 98.3022 8.02486 99.021 8.7674C99.741 9.52935 100.301 10.4278 100.669 11.4099C101.078 12.5151 101.28 13.6866 101.263 14.8652V23.0221ZM93.204 19.4877H97.631V14.7431C97.4704 13.5307 97.0597 12.365 96.425 11.3199C95.4703 10.6316 94.3666 10.1789 93.204 9.99858C92.6015 9.97336 92.0006 10.0783 91.4422 10.3063C90.8838 10.5343 90.381 10.88 89.968 11.3199C89.1784 12.2856 88.7469 13.4952 88.7469 14.7431C88.7469 15.9911 89.1784 17.2006 89.968 18.1664C90.3811 18.6064 90.8841 18.9522 91.4426 19.1802C92.0012 19.4082 92.6023 19.513 93.205 19.4877H93.204Z" fill="#32383C"/>
<path d="M103.822 3.59845C103.824 3.12352 103.92 2.65372 104.104 2.21585C104.288 1.77798 104.556 1.38063 104.893 1.04649C105.23 0.712337 105.63 0.447937 106.069 0.26838C106.508 0.0888238 106.979 -0.00237645 107.453 -4.48522e-06V9.07471H107.514C108.005 8.26543 108.707 7.60495 109.544 7.16386C110.472 6.68187 111.505 6.44094 112.55 6.46319C113.469 6.46762 114.379 6.6403 115.236 6.97268C116.135 7.31372 116.953 7.83989 117.636 8.51716C118.37 9.25591 118.951 10.1325 119.345 11.0966C119.806 12.2554 120.029 13.4952 120 14.7421C120.01 15.8733 119.809 16.9964 119.406 18.0533C119.033 19.0351 118.461 19.9292 117.727 20.6798C116.992 21.4211 116.115 22.006 115.148 22.3995C114.111 22.821 113 23.032 111.881 23.0201C110.76 23.0346 109.646 22.8345 108.6 22.4305C107.643 22.0579 106.779 21.4822 106.066 20.7429C105.344 19.9767 104.783 19.0725 104.418 18.0843C104.008 16.9741 103.804 15.7978 103.818 14.614L103.822 3.59845ZM111.881 19.4877C112.484 19.5129 113.084 19.408 113.643 19.18C114.201 18.952 114.704 18.6063 115.117 18.1664C115.907 17.2006 116.338 15.9911 116.338 14.7431C116.338 13.4952 115.907 12.2856 115.117 11.3199C114.704 10.88 114.201 10.5343 113.643 10.3063C113.084 10.0783 112.484 9.97336 111.881 9.99858C111.281 9.97216 110.682 10.0766 110.126 10.3048C109.57 10.5329 109.07 10.8793 108.661 11.3199C107.881 12.2898 107.455 13.4977 107.455 14.7431C107.455 15.9886 107.881 17.1965 108.661 18.1664C109.07 18.607 109.57 18.9534 110.126 19.1815C110.682 19.4096 111.281 19.5141 111.881 19.4877Z" fill="#32383C"/>
<path d="M9.738 23.0221V14.0395C9.78331 13.5429 9.72962 13.0423 9.5801 12.5667C9.43059 12.0911 9.18821 11.6499 8.867 11.2688C8.27111 10.7189 7.49109 10.4122 6.6806 10.4093C5.8701 10.4063 5.08789 10.7072 4.488 11.2528C4.16943 11.6382 3.92991 12.0827 3.7832 12.5609C3.63649 13.0391 3.58544 13.5415 3.63299 14.0395V19.4206C3.63063 19.8955 3.53485 20.3653 3.3511 20.8032C3.16735 21.2411 2.89921 21.6384 2.56204 21.9726C2.22487 22.3067 1.82527 22.5711 1.38601 22.7507C0.946756 22.9302 0.476447 23.0214 0.00197942 23.0191V14.0395C-0.0212753 12.9516 0.143837 11.8679 0.489986 10.8364C0.77091 10.008 1.22346 9.2484 1.81799 8.60724C2.3764 8.02602 3.06063 7.58085 3.81799 7.306C4.61911 7.01493 5.46575 6.8695 6.31799 6.87659C7.37401 6.85697 8.41802 7.10342 9.354 7.59328C10.2421 8.07306 10.9856 8.78231 11.507 9.64724H11.568C12.0721 8.77978 12.8062 8.06889 13.689 7.59328C14.6359 7.10086 15.6912 6.85442 16.758 6.87659C17.6102 6.8695 18.4569 7.01493 19.258 7.306C20.0154 7.58072 20.6997 8.02591 21.258 8.60724C21.8525 9.2484 22.3051 10.008 22.586 10.8364C22.9321 11.8679 23.0972 12.9516 23.074 14.0395V19.4206C23.0716 19.8955 22.9758 20.3653 22.7921 20.8032C22.6083 21.2411 22.3402 21.6384 22.003 21.9726C21.6659 22.3067 21.2662 22.5711 20.827 22.7507C20.3877 22.9302 19.9175 23.0214 19.443 23.0191V14.0395C19.4905 13.5415 19.4395 13.0391 19.2928 12.5609C19.1461 12.0827 18.9066 11.6382 18.588 11.2528C18.2971 10.9708 17.9523 10.7507 17.5742 10.6057C17.1961 10.4606 16.7926 10.3937 16.388 10.409C15.9871 10.3961 15.5878 10.4658 15.2148 10.6137C14.8419 10.7616 14.5033 10.9846 14.22 11.2688C13.5814 12.0435 13.2741 13.0392 13.365 14.0395V19.4206C13.3626 19.8955 13.2668 20.3653 13.0831 20.8032C12.8993 21.2411 12.6312 21.6384 12.2941 21.9726C11.9569 22.3067 11.5573 22.5711 11.118 22.7507C10.6788 22.9302 10.2085 23.0214 9.734 23.0191L9.738 23.0221Z" fill="#32383C"/>
</g>
<defs>
<clipPath id="clip0_64_369">
<rect width="120" height="23.0221" fill="white"/>
</clipPath>
</defs>
</svg>
